<mxfile host="Electron" modified="2023-08-26T09:16:49.589Z" agent="Mozilla/5.0 (Windows NT 10.0; Win64; x64) AppleWebKit/537.36 (KHTML, like Gecko) draw.io/21.6.8 Chrome/114.0.5735.289 Electron/25.5.0 Safari/537.36" version="21.6.8" etag="BJk8F8c0_qIJmPHlpGo1" type="device">
  <diagram id="sjs-Jb1WiQ8WGj6FYjHZ" name="第 1 页">
    <mxGraphModel dx="2263" dy="1903" grid="1" gridSize="10" guides="1" tooltips="1" connect="1" arrows="1" fold="1" page="1" pageScale="1" pageWidth="827" pageHeight="1169" math="0" shadow="0">
      <root>
        <mxCell id="0" />
        <mxCell id="1" parent="0" />
        <mxCell id="f5SEs0QCKPR_3SpagH0d-139" style="edgeStyle=orthogonalEdgeStyle;rounded=0;orthogonalLoop=1;jettySize=auto;html=1;entryX=1.007;entryY=0.567;entryDx=0;entryDy=0;entryPerimeter=0;" edge="1" parent="1" source="f5SEs0QCKPR_3SpagH0d-137" target="f5SEs0QCKPR_3SpagH0d-134">
          <mxGeometry relative="1" as="geometry" />
        </mxCell>
        <mxCell id="f5SEs0QCKPR_3SpagH0d-137" value="" style="rounded=0;whiteSpace=wrap;html=1;" vertex="1" parent="1">
          <mxGeometry x="-20" y="-70" width="1500" height="800" as="geometry" />
        </mxCell>
        <mxCell id="f5SEs0QCKPR_3SpagH0d-106" style="edgeStyle=orthogonalEdgeStyle;rounded=0;orthogonalLoop=1;jettySize=auto;html=1;exitX=0.5;exitY=1;exitDx=0;exitDy=0;entryX=0.5;entryY=0;entryDx=0;entryDy=0;" edge="1" parent="1" source="f5SEs0QCKPR_3SpagH0d-1" target="f5SEs0QCKPR_3SpagH0d-84">
          <mxGeometry relative="1" as="geometry" />
        </mxCell>
        <mxCell id="f5SEs0QCKPR_3SpagH0d-129" style="edgeStyle=orthogonalEdgeStyle;rounded=0;orthogonalLoop=1;jettySize=auto;html=1;exitX=0;exitY=0.5;exitDx=0;exitDy=0;entryX=0.5;entryY=0;entryDx=0;entryDy=0;" edge="1" parent="1" source="f5SEs0QCKPR_3SpagH0d-1" target="f5SEs0QCKPR_3SpagH0d-108">
          <mxGeometry relative="1" as="geometry" />
        </mxCell>
        <mxCell id="f5SEs0QCKPR_3SpagH0d-132" style="edgeStyle=orthogonalEdgeStyle;rounded=0;orthogonalLoop=1;jettySize=auto;html=1;entryX=0.75;entryY=0;entryDx=0;entryDy=0;fillColor=#FF3333;strokeColor=#FF0000;" edge="1" parent="1" source="f5SEs0QCKPR_3SpagH0d-1" target="f5SEs0QCKPR_3SpagH0d-3">
          <mxGeometry relative="1" as="geometry" />
        </mxCell>
        <mxCell id="f5SEs0QCKPR_3SpagH0d-133" style="edgeStyle=orthogonalEdgeStyle;rounded=0;orthogonalLoop=1;jettySize=auto;html=1;exitX=1;exitY=0.5;exitDx=0;exitDy=0;entryX=0.5;entryY=0;entryDx=0;entryDy=0;strokeColor=#FF0000;" edge="1" parent="1" source="f5SEs0QCKPR_3SpagH0d-1" target="f5SEs0QCKPR_3SpagH0d-60">
          <mxGeometry relative="1" as="geometry" />
        </mxCell>
        <mxCell id="f5SEs0QCKPR_3SpagH0d-1" value="IAM" style="rounded=0;whiteSpace=wrap;html=1;" vertex="1" parent="1">
          <mxGeometry x="690" y="-20" width="120" height="60" as="geometry" />
        </mxCell>
        <mxCell id="f5SEs0QCKPR_3SpagH0d-3" value="" style="rounded=0;whiteSpace=wrap;html=1;" vertex="1" parent="1">
          <mxGeometry x="40" y="450" width="460" height="270" as="geometry" />
        </mxCell>
        <mxCell id="f5SEs0QCKPR_3SpagH0d-28" value="" style="edgeStyle=orthogonalEdgeStyle;rounded=0;orthogonalLoop=1;jettySize=auto;html=1;" edge="1" parent="1" source="f5SEs0QCKPR_3SpagH0d-4" target="f5SEs0QCKPR_3SpagH0d-18">
          <mxGeometry relative="1" as="geometry" />
        </mxCell>
        <mxCell id="f5SEs0QCKPR_3SpagH0d-29" style="edgeStyle=orthogonalEdgeStyle;rounded=0;orthogonalLoop=1;jettySize=auto;html=1;exitX=0.5;exitY=1;exitDx=0;exitDy=0;entryX=0.5;entryY=0;entryDx=0;entryDy=0;" edge="1" parent="1" source="f5SEs0QCKPR_3SpagH0d-4" target="f5SEs0QCKPR_3SpagH0d-5">
          <mxGeometry relative="1" as="geometry" />
        </mxCell>
        <mxCell id="f5SEs0QCKPR_3SpagH0d-30" style="edgeStyle=orthogonalEdgeStyle;rounded=0;orthogonalLoop=1;jettySize=auto;html=1;exitX=0.5;exitY=1;exitDx=0;exitDy=0;" edge="1" parent="1" source="f5SEs0QCKPR_3SpagH0d-4" target="f5SEs0QCKPR_3SpagH0d-24">
          <mxGeometry relative="1" as="geometry" />
        </mxCell>
        <mxCell id="f5SEs0QCKPR_3SpagH0d-4" value="SLB" style="rounded=0;whiteSpace=wrap;html=1;" vertex="1" parent="1">
          <mxGeometry x="210" y="450" width="120" height="60" as="geometry" />
        </mxCell>
        <mxCell id="f5SEs0QCKPR_3SpagH0d-12" style="edgeStyle=orthogonalEdgeStyle;rounded=0;orthogonalLoop=1;jettySize=auto;html=1;exitX=0.25;exitY=1;exitDx=0;exitDy=0;entryX=0;entryY=0;entryDx=25;entryDy=15;entryPerimeter=0;" edge="1" parent="1" source="f5SEs0QCKPR_3SpagH0d-5" target="f5SEs0QCKPR_3SpagH0d-7">
          <mxGeometry relative="1" as="geometry" />
        </mxCell>
        <mxCell id="f5SEs0QCKPR_3SpagH0d-14" style="edgeStyle=orthogonalEdgeStyle;rounded=0;orthogonalLoop=1;jettySize=auto;html=1;exitX=0.75;exitY=1;exitDx=0;exitDy=0;entryX=0.5;entryY=0;entryDx=0;entryDy=0;entryPerimeter=0;" edge="1" parent="1" source="f5SEs0QCKPR_3SpagH0d-5" target="f5SEs0QCKPR_3SpagH0d-6">
          <mxGeometry relative="1" as="geometry" />
        </mxCell>
        <mxCell id="f5SEs0QCKPR_3SpagH0d-5" value="IAS" style="rounded=0;whiteSpace=wrap;html=1;" vertex="1" parent="1">
          <mxGeometry x="50" y="570" width="120" height="60" as="geometry" />
        </mxCell>
        <mxCell id="f5SEs0QCKPR_3SpagH0d-6" value="postgres" style="shape=cylinder3;whiteSpace=wrap;html=1;boundedLbl=1;backgroundOutline=1;size=15;" vertex="1" parent="1">
          <mxGeometry x="110" y="650" width="50" height="60" as="geometry" />
        </mxCell>
        <mxCell id="f5SEs0QCKPR_3SpagH0d-7" value="" style="shape=note;whiteSpace=wrap;html=1;backgroundOutline=1;darkOpacity=0.05;" vertex="1" parent="1">
          <mxGeometry x="50" y="650" width="40" height="60" as="geometry" />
        </mxCell>
        <mxCell id="f5SEs0QCKPR_3SpagH0d-9" value="文件" style="text;html=1;strokeColor=none;fillColor=none;align=center;verticalAlign=middle;whiteSpace=wrap;rounded=0;" vertex="1" parent="1">
          <mxGeometry x="40" y="680" width="60" height="30" as="geometry" />
        </mxCell>
        <mxCell id="f5SEs0QCKPR_3SpagH0d-16" style="edgeStyle=orthogonalEdgeStyle;rounded=0;orthogonalLoop=1;jettySize=auto;html=1;exitX=0.25;exitY=1;exitDx=0;exitDy=0;entryX=0;entryY=0;entryDx=25;entryDy=15;entryPerimeter=0;" edge="1" source="f5SEs0QCKPR_3SpagH0d-18" target="f5SEs0QCKPR_3SpagH0d-20" parent="1">
          <mxGeometry relative="1" as="geometry" />
        </mxCell>
        <mxCell id="f5SEs0QCKPR_3SpagH0d-17" style="edgeStyle=orthogonalEdgeStyle;rounded=0;orthogonalLoop=1;jettySize=auto;html=1;exitX=0.75;exitY=1;exitDx=0;exitDy=0;entryX=0.5;entryY=0;entryDx=0;entryDy=0;entryPerimeter=0;" edge="1" source="f5SEs0QCKPR_3SpagH0d-18" target="f5SEs0QCKPR_3SpagH0d-19" parent="1">
          <mxGeometry relative="1" as="geometry" />
        </mxCell>
        <mxCell id="f5SEs0QCKPR_3SpagH0d-18" value="IAS" style="rounded=0;whiteSpace=wrap;html=1;" vertex="1" parent="1">
          <mxGeometry x="210" y="570" width="120" height="60" as="geometry" />
        </mxCell>
        <mxCell id="f5SEs0QCKPR_3SpagH0d-19" value="postgres" style="shape=cylinder3;whiteSpace=wrap;html=1;boundedLbl=1;backgroundOutline=1;size=15;" vertex="1" parent="1">
          <mxGeometry x="270" y="650" width="50" height="60" as="geometry" />
        </mxCell>
        <mxCell id="f5SEs0QCKPR_3SpagH0d-20" value="" style="shape=note;whiteSpace=wrap;html=1;backgroundOutline=1;darkOpacity=0.05;" vertex="1" parent="1">
          <mxGeometry x="210" y="650" width="40" height="60" as="geometry" />
        </mxCell>
        <mxCell id="f5SEs0QCKPR_3SpagH0d-21" value="文件" style="text;html=1;strokeColor=none;fillColor=none;align=center;verticalAlign=middle;whiteSpace=wrap;rounded=0;" vertex="1" parent="1">
          <mxGeometry x="200" y="680" width="60" height="30" as="geometry" />
        </mxCell>
        <mxCell id="f5SEs0QCKPR_3SpagH0d-22" style="edgeStyle=orthogonalEdgeStyle;rounded=0;orthogonalLoop=1;jettySize=auto;html=1;exitX=0.25;exitY=1;exitDx=0;exitDy=0;entryX=0;entryY=0;entryDx=25;entryDy=15;entryPerimeter=0;" edge="1" source="f5SEs0QCKPR_3SpagH0d-24" target="f5SEs0QCKPR_3SpagH0d-26" parent="1">
          <mxGeometry relative="1" as="geometry" />
        </mxCell>
        <mxCell id="f5SEs0QCKPR_3SpagH0d-23" style="edgeStyle=orthogonalEdgeStyle;rounded=0;orthogonalLoop=1;jettySize=auto;html=1;exitX=0.75;exitY=1;exitDx=0;exitDy=0;entryX=0.5;entryY=0;entryDx=0;entryDy=0;entryPerimeter=0;" edge="1" source="f5SEs0QCKPR_3SpagH0d-24" target="f5SEs0QCKPR_3SpagH0d-25" parent="1">
          <mxGeometry relative="1" as="geometry" />
        </mxCell>
        <mxCell id="f5SEs0QCKPR_3SpagH0d-24" value="IAS" style="rounded=0;whiteSpace=wrap;html=1;" vertex="1" parent="1">
          <mxGeometry x="364" y="570" width="120" height="60" as="geometry" />
        </mxCell>
        <mxCell id="f5SEs0QCKPR_3SpagH0d-25" value="postgres" style="shape=cylinder3;whiteSpace=wrap;html=1;boundedLbl=1;backgroundOutline=1;size=15;" vertex="1" parent="1">
          <mxGeometry x="424" y="650" width="50" height="60" as="geometry" />
        </mxCell>
        <mxCell id="f5SEs0QCKPR_3SpagH0d-26" value="" style="shape=note;whiteSpace=wrap;html=1;backgroundOutline=1;darkOpacity=0.05;" vertex="1" parent="1">
          <mxGeometry x="364" y="650" width="40" height="60" as="geometry" />
        </mxCell>
        <mxCell id="f5SEs0QCKPR_3SpagH0d-27" value="文件" style="text;html=1;strokeColor=none;fillColor=none;align=center;verticalAlign=middle;whiteSpace=wrap;rounded=0;" vertex="1" parent="1">
          <mxGeometry x="354" y="680" width="60" height="30" as="geometry" />
        </mxCell>
        <mxCell id="f5SEs0QCKPR_3SpagH0d-33" value="" style="rounded=0;whiteSpace=wrap;html=1;" vertex="1" parent="1">
          <mxGeometry x="520" y="450" width="460" height="270" as="geometry" />
        </mxCell>
        <mxCell id="f5SEs0QCKPR_3SpagH0d-34" value="" style="edgeStyle=orthogonalEdgeStyle;rounded=0;orthogonalLoop=1;jettySize=auto;html=1;" edge="1" source="f5SEs0QCKPR_3SpagH0d-37" target="f5SEs0QCKPR_3SpagH0d-46" parent="1">
          <mxGeometry relative="1" as="geometry" />
        </mxCell>
        <mxCell id="f5SEs0QCKPR_3SpagH0d-35" style="edgeStyle=orthogonalEdgeStyle;rounded=0;orthogonalLoop=1;jettySize=auto;html=1;exitX=0.5;exitY=1;exitDx=0;exitDy=0;entryX=0.5;entryY=0;entryDx=0;entryDy=0;" edge="1" source="f5SEs0QCKPR_3SpagH0d-37" target="f5SEs0QCKPR_3SpagH0d-40" parent="1">
          <mxGeometry relative="1" as="geometry" />
        </mxCell>
        <mxCell id="f5SEs0QCKPR_3SpagH0d-36" style="edgeStyle=orthogonalEdgeStyle;rounded=0;orthogonalLoop=1;jettySize=auto;html=1;exitX=0.5;exitY=1;exitDx=0;exitDy=0;" edge="1" source="f5SEs0QCKPR_3SpagH0d-37" target="f5SEs0QCKPR_3SpagH0d-52" parent="1">
          <mxGeometry relative="1" as="geometry" />
        </mxCell>
        <mxCell id="f5SEs0QCKPR_3SpagH0d-37" value="SLB" style="rounded=0;whiteSpace=wrap;html=1;" vertex="1" parent="1">
          <mxGeometry x="690" y="450" width="120" height="60" as="geometry" />
        </mxCell>
        <mxCell id="f5SEs0QCKPR_3SpagH0d-38" style="edgeStyle=orthogonalEdgeStyle;rounded=0;orthogonalLoop=1;jettySize=auto;html=1;exitX=0.25;exitY=1;exitDx=0;exitDy=0;entryX=0;entryY=0;entryDx=25;entryDy=15;entryPerimeter=0;" edge="1" source="f5SEs0QCKPR_3SpagH0d-40" target="f5SEs0QCKPR_3SpagH0d-42" parent="1">
          <mxGeometry relative="1" as="geometry" />
        </mxCell>
        <mxCell id="f5SEs0QCKPR_3SpagH0d-39" style="edgeStyle=orthogonalEdgeStyle;rounded=0;orthogonalLoop=1;jettySize=auto;html=1;exitX=0.75;exitY=1;exitDx=0;exitDy=0;entryX=0.5;entryY=0;entryDx=0;entryDy=0;entryPerimeter=0;" edge="1" source="f5SEs0QCKPR_3SpagH0d-40" target="f5SEs0QCKPR_3SpagH0d-41" parent="1">
          <mxGeometry relative="1" as="geometry" />
        </mxCell>
        <mxCell id="f5SEs0QCKPR_3SpagH0d-40" value="IAS" style="rounded=0;whiteSpace=wrap;html=1;" vertex="1" parent="1">
          <mxGeometry x="530" y="570" width="120" height="60" as="geometry" />
        </mxCell>
        <mxCell id="f5SEs0QCKPR_3SpagH0d-41" value="postgres" style="shape=cylinder3;whiteSpace=wrap;html=1;boundedLbl=1;backgroundOutline=1;size=15;" vertex="1" parent="1">
          <mxGeometry x="590" y="650" width="50" height="60" as="geometry" />
        </mxCell>
        <mxCell id="f5SEs0QCKPR_3SpagH0d-42" value="" style="shape=note;whiteSpace=wrap;html=1;backgroundOutline=1;darkOpacity=0.05;" vertex="1" parent="1">
          <mxGeometry x="530" y="650" width="40" height="60" as="geometry" />
        </mxCell>
        <mxCell id="f5SEs0QCKPR_3SpagH0d-43" value="文件" style="text;html=1;strokeColor=none;fillColor=none;align=center;verticalAlign=middle;whiteSpace=wrap;rounded=0;" vertex="1" parent="1">
          <mxGeometry x="520" y="680" width="60" height="30" as="geometry" />
        </mxCell>
        <mxCell id="f5SEs0QCKPR_3SpagH0d-44" style="edgeStyle=orthogonalEdgeStyle;rounded=0;orthogonalLoop=1;jettySize=auto;html=1;exitX=0.25;exitY=1;exitDx=0;exitDy=0;entryX=0;entryY=0;entryDx=25;entryDy=15;entryPerimeter=0;" edge="1" source="f5SEs0QCKPR_3SpagH0d-46" target="f5SEs0QCKPR_3SpagH0d-48" parent="1">
          <mxGeometry relative="1" as="geometry" />
        </mxCell>
        <mxCell id="f5SEs0QCKPR_3SpagH0d-45" style="edgeStyle=orthogonalEdgeStyle;rounded=0;orthogonalLoop=1;jettySize=auto;html=1;exitX=0.75;exitY=1;exitDx=0;exitDy=0;entryX=0.5;entryY=0;entryDx=0;entryDy=0;entryPerimeter=0;" edge="1" source="f5SEs0QCKPR_3SpagH0d-46" target="f5SEs0QCKPR_3SpagH0d-47" parent="1">
          <mxGeometry relative="1" as="geometry" />
        </mxCell>
        <mxCell id="f5SEs0QCKPR_3SpagH0d-46" value="IAS" style="rounded=0;whiteSpace=wrap;html=1;" vertex="1" parent="1">
          <mxGeometry x="690" y="570" width="120" height="60" as="geometry" />
        </mxCell>
        <mxCell id="f5SEs0QCKPR_3SpagH0d-47" value="postgres" style="shape=cylinder3;whiteSpace=wrap;html=1;boundedLbl=1;backgroundOutline=1;size=15;" vertex="1" parent="1">
          <mxGeometry x="750" y="650" width="50" height="60" as="geometry" />
        </mxCell>
        <mxCell id="f5SEs0QCKPR_3SpagH0d-48" value="" style="shape=note;whiteSpace=wrap;html=1;backgroundOutline=1;darkOpacity=0.05;" vertex="1" parent="1">
          <mxGeometry x="690" y="650" width="40" height="60" as="geometry" />
        </mxCell>
        <mxCell id="f5SEs0QCKPR_3SpagH0d-49" value="文件" style="text;html=1;strokeColor=none;fillColor=none;align=center;verticalAlign=middle;whiteSpace=wrap;rounded=0;" vertex="1" parent="1">
          <mxGeometry x="680" y="680" width="60" height="30" as="geometry" />
        </mxCell>
        <mxCell id="f5SEs0QCKPR_3SpagH0d-50" style="edgeStyle=orthogonalEdgeStyle;rounded=0;orthogonalLoop=1;jettySize=auto;html=1;exitX=0.25;exitY=1;exitDx=0;exitDy=0;entryX=0;entryY=0;entryDx=25;entryDy=15;entryPerimeter=0;" edge="1" source="f5SEs0QCKPR_3SpagH0d-52" target="f5SEs0QCKPR_3SpagH0d-54" parent="1">
          <mxGeometry relative="1" as="geometry" />
        </mxCell>
        <mxCell id="f5SEs0QCKPR_3SpagH0d-51" style="edgeStyle=orthogonalEdgeStyle;rounded=0;orthogonalLoop=1;jettySize=auto;html=1;exitX=0.75;exitY=1;exitDx=0;exitDy=0;entryX=0.5;entryY=0;entryDx=0;entryDy=0;entryPerimeter=0;" edge="1" source="f5SEs0QCKPR_3SpagH0d-52" target="f5SEs0QCKPR_3SpagH0d-53" parent="1">
          <mxGeometry relative="1" as="geometry" />
        </mxCell>
        <mxCell id="f5SEs0QCKPR_3SpagH0d-52" value="IAS" style="rounded=0;whiteSpace=wrap;html=1;" vertex="1" parent="1">
          <mxGeometry x="844" y="570" width="120" height="60" as="geometry" />
        </mxCell>
        <mxCell id="f5SEs0QCKPR_3SpagH0d-53" value="postgres" style="shape=cylinder3;whiteSpace=wrap;html=1;boundedLbl=1;backgroundOutline=1;size=15;" vertex="1" parent="1">
          <mxGeometry x="904" y="650" width="50" height="60" as="geometry" />
        </mxCell>
        <mxCell id="f5SEs0QCKPR_3SpagH0d-54" value="" style="shape=note;whiteSpace=wrap;html=1;backgroundOutline=1;darkOpacity=0.05;" vertex="1" parent="1">
          <mxGeometry x="844" y="650" width="40" height="60" as="geometry" />
        </mxCell>
        <mxCell id="f5SEs0QCKPR_3SpagH0d-55" value="文件" style="text;html=1;strokeColor=none;fillColor=none;align=center;verticalAlign=middle;whiteSpace=wrap;rounded=0;" vertex="1" parent="1">
          <mxGeometry x="834" y="680" width="60" height="30" as="geometry" />
        </mxCell>
        <mxCell id="f5SEs0QCKPR_3SpagH0d-56" value="" style="rounded=0;whiteSpace=wrap;html=1;" vertex="1" parent="1">
          <mxGeometry x="1000" y="450" width="460" height="270" as="geometry" />
        </mxCell>
        <mxCell id="f5SEs0QCKPR_3SpagH0d-57" value="" style="edgeStyle=orthogonalEdgeStyle;rounded=0;orthogonalLoop=1;jettySize=auto;html=1;" edge="1" source="f5SEs0QCKPR_3SpagH0d-60" target="f5SEs0QCKPR_3SpagH0d-69" parent="1">
          <mxGeometry relative="1" as="geometry" />
        </mxCell>
        <mxCell id="f5SEs0QCKPR_3SpagH0d-58" style="edgeStyle=orthogonalEdgeStyle;rounded=0;orthogonalLoop=1;jettySize=auto;html=1;exitX=0.5;exitY=1;exitDx=0;exitDy=0;entryX=0.5;entryY=0;entryDx=0;entryDy=0;" edge="1" source="f5SEs0QCKPR_3SpagH0d-60" target="f5SEs0QCKPR_3SpagH0d-63" parent="1">
          <mxGeometry relative="1" as="geometry" />
        </mxCell>
        <mxCell id="f5SEs0QCKPR_3SpagH0d-59" style="edgeStyle=orthogonalEdgeStyle;rounded=0;orthogonalLoop=1;jettySize=auto;html=1;exitX=0.5;exitY=1;exitDx=0;exitDy=0;" edge="1" source="f5SEs0QCKPR_3SpagH0d-60" target="f5SEs0QCKPR_3SpagH0d-75" parent="1">
          <mxGeometry relative="1" as="geometry" />
        </mxCell>
        <mxCell id="f5SEs0QCKPR_3SpagH0d-60" value="SLB" style="rounded=0;whiteSpace=wrap;html=1;" vertex="1" parent="1">
          <mxGeometry x="1170" y="450" width="120" height="60" as="geometry" />
        </mxCell>
        <mxCell id="f5SEs0QCKPR_3SpagH0d-61" style="edgeStyle=orthogonalEdgeStyle;rounded=0;orthogonalLoop=1;jettySize=auto;html=1;exitX=0.25;exitY=1;exitDx=0;exitDy=0;entryX=0;entryY=0;entryDx=25;entryDy=15;entryPerimeter=0;" edge="1" source="f5SEs0QCKPR_3SpagH0d-63" target="f5SEs0QCKPR_3SpagH0d-65" parent="1">
          <mxGeometry relative="1" as="geometry" />
        </mxCell>
        <mxCell id="f5SEs0QCKPR_3SpagH0d-62" style="edgeStyle=orthogonalEdgeStyle;rounded=0;orthogonalLoop=1;jettySize=auto;html=1;exitX=0.75;exitY=1;exitDx=0;exitDy=0;entryX=0.5;entryY=0;entryDx=0;entryDy=0;entryPerimeter=0;" edge="1" source="f5SEs0QCKPR_3SpagH0d-63" target="f5SEs0QCKPR_3SpagH0d-64" parent="1">
          <mxGeometry relative="1" as="geometry" />
        </mxCell>
        <mxCell id="f5SEs0QCKPR_3SpagH0d-63" value="IAS" style="rounded=0;whiteSpace=wrap;html=1;" vertex="1" parent="1">
          <mxGeometry x="1010" y="570" width="120" height="60" as="geometry" />
        </mxCell>
        <mxCell id="f5SEs0QCKPR_3SpagH0d-64" value="postgres" style="shape=cylinder3;whiteSpace=wrap;html=1;boundedLbl=1;backgroundOutline=1;size=15;" vertex="1" parent="1">
          <mxGeometry x="1070" y="650" width="50" height="60" as="geometry" />
        </mxCell>
        <mxCell id="f5SEs0QCKPR_3SpagH0d-65" value="" style="shape=note;whiteSpace=wrap;html=1;backgroundOutline=1;darkOpacity=0.05;" vertex="1" parent="1">
          <mxGeometry x="1010" y="650" width="40" height="60" as="geometry" />
        </mxCell>
        <mxCell id="f5SEs0QCKPR_3SpagH0d-66" value="文件" style="text;html=1;strokeColor=none;fillColor=none;align=center;verticalAlign=middle;whiteSpace=wrap;rounded=0;" vertex="1" parent="1">
          <mxGeometry x="1000" y="680" width="60" height="30" as="geometry" />
        </mxCell>
        <mxCell id="f5SEs0QCKPR_3SpagH0d-67" style="edgeStyle=orthogonalEdgeStyle;rounded=0;orthogonalLoop=1;jettySize=auto;html=1;exitX=0.25;exitY=1;exitDx=0;exitDy=0;entryX=0;entryY=0;entryDx=25;entryDy=15;entryPerimeter=0;" edge="1" source="f5SEs0QCKPR_3SpagH0d-69" target="f5SEs0QCKPR_3SpagH0d-71" parent="1">
          <mxGeometry relative="1" as="geometry" />
        </mxCell>
        <mxCell id="f5SEs0QCKPR_3SpagH0d-68" style="edgeStyle=orthogonalEdgeStyle;rounded=0;orthogonalLoop=1;jettySize=auto;html=1;exitX=0.75;exitY=1;exitDx=0;exitDy=0;entryX=0.5;entryY=0;entryDx=0;entryDy=0;entryPerimeter=0;" edge="1" source="f5SEs0QCKPR_3SpagH0d-69" target="f5SEs0QCKPR_3SpagH0d-70" parent="1">
          <mxGeometry relative="1" as="geometry" />
        </mxCell>
        <mxCell id="f5SEs0QCKPR_3SpagH0d-69" value="IAS" style="rounded=0;whiteSpace=wrap;html=1;" vertex="1" parent="1">
          <mxGeometry x="1170" y="570" width="120" height="60" as="geometry" />
        </mxCell>
        <mxCell id="f5SEs0QCKPR_3SpagH0d-70" value="postgres" style="shape=cylinder3;whiteSpace=wrap;html=1;boundedLbl=1;backgroundOutline=1;size=15;" vertex="1" parent="1">
          <mxGeometry x="1230" y="650" width="50" height="60" as="geometry" />
        </mxCell>
        <mxCell id="f5SEs0QCKPR_3SpagH0d-71" value="" style="shape=note;whiteSpace=wrap;html=1;backgroundOutline=1;darkOpacity=0.05;" vertex="1" parent="1">
          <mxGeometry x="1170" y="650" width="40" height="60" as="geometry" />
        </mxCell>
        <mxCell id="f5SEs0QCKPR_3SpagH0d-72" value="文件" style="text;html=1;strokeColor=none;fillColor=none;align=center;verticalAlign=middle;whiteSpace=wrap;rounded=0;" vertex="1" parent="1">
          <mxGeometry x="1160" y="680" width="60" height="30" as="geometry" />
        </mxCell>
        <mxCell id="f5SEs0QCKPR_3SpagH0d-73" style="edgeStyle=orthogonalEdgeStyle;rounded=0;orthogonalLoop=1;jettySize=auto;html=1;exitX=0.25;exitY=1;exitDx=0;exitDy=0;entryX=0;entryY=0;entryDx=25;entryDy=15;entryPerimeter=0;" edge="1" source="f5SEs0QCKPR_3SpagH0d-75" target="f5SEs0QCKPR_3SpagH0d-77" parent="1">
          <mxGeometry relative="1" as="geometry" />
        </mxCell>
        <mxCell id="f5SEs0QCKPR_3SpagH0d-74" style="edgeStyle=orthogonalEdgeStyle;rounded=0;orthogonalLoop=1;jettySize=auto;html=1;exitX=0.75;exitY=1;exitDx=0;exitDy=0;entryX=0.5;entryY=0;entryDx=0;entryDy=0;entryPerimeter=0;" edge="1" source="f5SEs0QCKPR_3SpagH0d-75" target="f5SEs0QCKPR_3SpagH0d-76" parent="1">
          <mxGeometry relative="1" as="geometry" />
        </mxCell>
        <mxCell id="f5SEs0QCKPR_3SpagH0d-75" value="IAS" style="rounded=0;whiteSpace=wrap;html=1;" vertex="1" parent="1">
          <mxGeometry x="1324" y="570" width="120" height="60" as="geometry" />
        </mxCell>
        <mxCell id="f5SEs0QCKPR_3SpagH0d-76" value="postgres" style="shape=cylinder3;whiteSpace=wrap;html=1;boundedLbl=1;backgroundOutline=1;size=15;" vertex="1" parent="1">
          <mxGeometry x="1384" y="650" width="50" height="60" as="geometry" />
        </mxCell>
        <mxCell id="f5SEs0QCKPR_3SpagH0d-77" value="" style="shape=note;whiteSpace=wrap;html=1;backgroundOutline=1;darkOpacity=0.05;" vertex="1" parent="1">
          <mxGeometry x="1324" y="650" width="40" height="60" as="geometry" />
        </mxCell>
        <mxCell id="f5SEs0QCKPR_3SpagH0d-78" value="文件" style="text;html=1;strokeColor=none;fillColor=none;align=center;verticalAlign=middle;whiteSpace=wrap;rounded=0;" vertex="1" parent="1">
          <mxGeometry x="1314" y="680" width="60" height="30" as="geometry" />
        </mxCell>
        <mxCell id="f5SEs0QCKPR_3SpagH0d-103" style="edgeStyle=orthogonalEdgeStyle;rounded=0;orthogonalLoop=1;jettySize=auto;html=1;exitX=0.5;exitY=1;exitDx=0;exitDy=0;entryX=0.5;entryY=0;entryDx=0;entryDy=0;" edge="1" parent="1" source="f5SEs0QCKPR_3SpagH0d-80" target="f5SEs0QCKPR_3SpagH0d-4">
          <mxGeometry relative="1" as="geometry" />
        </mxCell>
        <mxCell id="f5SEs0QCKPR_3SpagH0d-104" style="edgeStyle=orthogonalEdgeStyle;rounded=0;orthogonalLoop=1;jettySize=auto;html=1;entryX=0.5;entryY=0;entryDx=0;entryDy=0;" edge="1" parent="1" source="f5SEs0QCKPR_3SpagH0d-80" target="f5SEs0QCKPR_3SpagH0d-37">
          <mxGeometry relative="1" as="geometry" />
        </mxCell>
        <mxCell id="f5SEs0QCKPR_3SpagH0d-105" style="edgeStyle=orthogonalEdgeStyle;rounded=0;orthogonalLoop=1;jettySize=auto;html=1;entryX=0.5;entryY=0;entryDx=0;entryDy=0;exitX=0.5;exitY=1;exitDx=0;exitDy=0;" edge="1" parent="1" source="f5SEs0QCKPR_3SpagH0d-80" target="f5SEs0QCKPR_3SpagH0d-60">
          <mxGeometry relative="1" as="geometry" />
        </mxCell>
        <mxCell id="f5SEs0QCKPR_3SpagH0d-80" value="" style="rounded=0;whiteSpace=wrap;html=1;" vertex="1" parent="1">
          <mxGeometry x="520" y="90" width="460" height="270" as="geometry" />
        </mxCell>
        <mxCell id="f5SEs0QCKPR_3SpagH0d-81" value="" style="edgeStyle=orthogonalEdgeStyle;rounded=0;orthogonalLoop=1;jettySize=auto;html=1;" edge="1" source="f5SEs0QCKPR_3SpagH0d-84" target="f5SEs0QCKPR_3SpagH0d-93" parent="1">
          <mxGeometry relative="1" as="geometry" />
        </mxCell>
        <mxCell id="f5SEs0QCKPR_3SpagH0d-82" style="edgeStyle=orthogonalEdgeStyle;rounded=0;orthogonalLoop=1;jettySize=auto;html=1;exitX=0.5;exitY=1;exitDx=0;exitDy=0;entryX=0.5;entryY=0;entryDx=0;entryDy=0;" edge="1" source="f5SEs0QCKPR_3SpagH0d-84" target="f5SEs0QCKPR_3SpagH0d-87" parent="1">
          <mxGeometry relative="1" as="geometry" />
        </mxCell>
        <mxCell id="f5SEs0QCKPR_3SpagH0d-83" style="edgeStyle=orthogonalEdgeStyle;rounded=0;orthogonalLoop=1;jettySize=auto;html=1;exitX=0.5;exitY=1;exitDx=0;exitDy=0;" edge="1" source="f5SEs0QCKPR_3SpagH0d-84" target="f5SEs0QCKPR_3SpagH0d-99" parent="1">
          <mxGeometry relative="1" as="geometry" />
        </mxCell>
        <mxCell id="f5SEs0QCKPR_3SpagH0d-84" value="SLB" style="rounded=0;whiteSpace=wrap;html=1;" vertex="1" parent="1">
          <mxGeometry x="690" y="90" width="120" height="60" as="geometry" />
        </mxCell>
        <mxCell id="f5SEs0QCKPR_3SpagH0d-85" style="edgeStyle=orthogonalEdgeStyle;rounded=0;orthogonalLoop=1;jettySize=auto;html=1;exitX=0.25;exitY=1;exitDx=0;exitDy=0;entryX=0;entryY=0;entryDx=25;entryDy=15;entryPerimeter=0;" edge="1" source="f5SEs0QCKPR_3SpagH0d-87" target="f5SEs0QCKPR_3SpagH0d-89" parent="1">
          <mxGeometry relative="1" as="geometry" />
        </mxCell>
        <mxCell id="f5SEs0QCKPR_3SpagH0d-86" style="edgeStyle=orthogonalEdgeStyle;rounded=0;orthogonalLoop=1;jettySize=auto;html=1;exitX=0.75;exitY=1;exitDx=0;exitDy=0;entryX=0.5;entryY=0;entryDx=0;entryDy=0;entryPerimeter=0;" edge="1" source="f5SEs0QCKPR_3SpagH0d-87" target="f5SEs0QCKPR_3SpagH0d-88" parent="1">
          <mxGeometry relative="1" as="geometry" />
        </mxCell>
        <mxCell id="f5SEs0QCKPR_3SpagH0d-87" value="IAS" style="rounded=0;whiteSpace=wrap;html=1;" vertex="1" parent="1">
          <mxGeometry x="530" y="210" width="120" height="60" as="geometry" />
        </mxCell>
        <mxCell id="f5SEs0QCKPR_3SpagH0d-88" value="postgres" style="shape=cylinder3;whiteSpace=wrap;html=1;boundedLbl=1;backgroundOutline=1;size=15;" vertex="1" parent="1">
          <mxGeometry x="590" y="290" width="50" height="60" as="geometry" />
        </mxCell>
        <mxCell id="f5SEs0QCKPR_3SpagH0d-89" value="" style="shape=note;whiteSpace=wrap;html=1;backgroundOutline=1;darkOpacity=0.05;" vertex="1" parent="1">
          <mxGeometry x="530" y="290" width="40" height="60" as="geometry" />
        </mxCell>
        <mxCell id="f5SEs0QCKPR_3SpagH0d-90" value="文件" style="text;html=1;strokeColor=none;fillColor=none;align=center;verticalAlign=middle;whiteSpace=wrap;rounded=0;" vertex="1" parent="1">
          <mxGeometry x="520" y="320" width="60" height="30" as="geometry" />
        </mxCell>
        <mxCell id="f5SEs0QCKPR_3SpagH0d-91" style="edgeStyle=orthogonalEdgeStyle;rounded=0;orthogonalLoop=1;jettySize=auto;html=1;exitX=0.25;exitY=1;exitDx=0;exitDy=0;entryX=0;entryY=0;entryDx=25;entryDy=15;entryPerimeter=0;" edge="1" source="f5SEs0QCKPR_3SpagH0d-93" target="f5SEs0QCKPR_3SpagH0d-95" parent="1">
          <mxGeometry relative="1" as="geometry" />
        </mxCell>
        <mxCell id="f5SEs0QCKPR_3SpagH0d-92" style="edgeStyle=orthogonalEdgeStyle;rounded=0;orthogonalLoop=1;jettySize=auto;html=1;exitX=0.75;exitY=1;exitDx=0;exitDy=0;entryX=0.5;entryY=0;entryDx=0;entryDy=0;entryPerimeter=0;" edge="1" source="f5SEs0QCKPR_3SpagH0d-93" target="f5SEs0QCKPR_3SpagH0d-94" parent="1">
          <mxGeometry relative="1" as="geometry" />
        </mxCell>
        <mxCell id="f5SEs0QCKPR_3SpagH0d-93" value="IAS" style="rounded=0;whiteSpace=wrap;html=1;" vertex="1" parent="1">
          <mxGeometry x="690" y="210" width="120" height="60" as="geometry" />
        </mxCell>
        <mxCell id="f5SEs0QCKPR_3SpagH0d-94" value="postgres" style="shape=cylinder3;whiteSpace=wrap;html=1;boundedLbl=1;backgroundOutline=1;size=15;" vertex="1" parent="1">
          <mxGeometry x="750" y="290" width="50" height="60" as="geometry" />
        </mxCell>
        <mxCell id="f5SEs0QCKPR_3SpagH0d-95" value="" style="shape=note;whiteSpace=wrap;html=1;backgroundOutline=1;darkOpacity=0.05;" vertex="1" parent="1">
          <mxGeometry x="690" y="290" width="40" height="60" as="geometry" />
        </mxCell>
        <mxCell id="f5SEs0QCKPR_3SpagH0d-96" value="文件" style="text;html=1;strokeColor=none;fillColor=none;align=center;verticalAlign=middle;whiteSpace=wrap;rounded=0;" vertex="1" parent="1">
          <mxGeometry x="680" y="320" width="60" height="30" as="geometry" />
        </mxCell>
        <mxCell id="f5SEs0QCKPR_3SpagH0d-97" style="edgeStyle=orthogonalEdgeStyle;rounded=0;orthogonalLoop=1;jettySize=auto;html=1;exitX=0.25;exitY=1;exitDx=0;exitDy=0;entryX=0;entryY=0;entryDx=25;entryDy=15;entryPerimeter=0;" edge="1" source="f5SEs0QCKPR_3SpagH0d-99" target="f5SEs0QCKPR_3SpagH0d-101" parent="1">
          <mxGeometry relative="1" as="geometry" />
        </mxCell>
        <mxCell id="f5SEs0QCKPR_3SpagH0d-98" style="edgeStyle=orthogonalEdgeStyle;rounded=0;orthogonalLoop=1;jettySize=auto;html=1;exitX=0.75;exitY=1;exitDx=0;exitDy=0;entryX=0.5;entryY=0;entryDx=0;entryDy=0;entryPerimeter=0;" edge="1" source="f5SEs0QCKPR_3SpagH0d-99" target="f5SEs0QCKPR_3SpagH0d-100" parent="1">
          <mxGeometry relative="1" as="geometry" />
        </mxCell>
        <mxCell id="f5SEs0QCKPR_3SpagH0d-99" value="IAS" style="rounded=0;whiteSpace=wrap;html=1;" vertex="1" parent="1">
          <mxGeometry x="844" y="210" width="120" height="60" as="geometry" />
        </mxCell>
        <mxCell id="f5SEs0QCKPR_3SpagH0d-100" value="postgres" style="shape=cylinder3;whiteSpace=wrap;html=1;boundedLbl=1;backgroundOutline=1;size=15;" vertex="1" parent="1">
          <mxGeometry x="904" y="290" width="50" height="60" as="geometry" />
        </mxCell>
        <mxCell id="f5SEs0QCKPR_3SpagH0d-101" value="" style="shape=note;whiteSpace=wrap;html=1;backgroundOutline=1;darkOpacity=0.05;" vertex="1" parent="1">
          <mxGeometry x="844" y="290" width="40" height="60" as="geometry" />
        </mxCell>
        <mxCell id="f5SEs0QCKPR_3SpagH0d-102" value="文件" style="text;html=1;strokeColor=none;fillColor=none;align=center;verticalAlign=middle;whiteSpace=wrap;rounded=0;" vertex="1" parent="1">
          <mxGeometry x="834" y="320" width="60" height="30" as="geometry" />
        </mxCell>
        <mxCell id="f5SEs0QCKPR_3SpagH0d-126" style="edgeStyle=orthogonalEdgeStyle;rounded=0;orthogonalLoop=1;jettySize=auto;html=1;" edge="1" parent="1" source="f5SEs0QCKPR_3SpagH0d-108">
          <mxGeometry relative="1" as="geometry">
            <mxPoint x="270" y="450" as="targetPoint" />
          </mxGeometry>
        </mxCell>
        <mxCell id="f5SEs0QCKPR_3SpagH0d-108" value="GSLB" style="rounded=0;whiteSpace=wrap;html=1;" vertex="1" parent="1">
          <mxGeometry x="211" y="250" width="120" height="60" as="geometry" />
        </mxCell>
        <mxCell id="f5SEs0QCKPR_3SpagH0d-123" style="edgeStyle=orthogonalEdgeStyle;rounded=0;orthogonalLoop=1;jettySize=auto;html=1;" edge="1" parent="1" source="f5SEs0QCKPR_3SpagH0d-109" target="f5SEs0QCKPR_3SpagH0d-108">
          <mxGeometry relative="1" as="geometry" />
        </mxCell>
        <mxCell id="f5SEs0QCKPR_3SpagH0d-109" value="Actor" style="shape=umlActor;verticalLabelPosition=bottom;verticalAlign=top;html=1;outlineConnect=0;" vertex="1" parent="1">
          <mxGeometry x="-1" y="250" width="30" height="60" as="geometry" />
        </mxCell>
        <mxCell id="f5SEs0QCKPR_3SpagH0d-111" value="中心节点" style="text;html=1;strokeColor=none;fillColor=none;align=center;verticalAlign=middle;whiteSpace=wrap;rounded=0;" vertex="1" parent="1">
          <mxGeometry x="530" y="100" width="60" height="30" as="geometry" />
        </mxCell>
        <mxCell id="f5SEs0QCKPR_3SpagH0d-112" value="广州边缘节点" style="text;html=1;strokeColor=none;fillColor=none;align=center;verticalAlign=middle;whiteSpace=wrap;rounded=0;" vertex="1" parent="1">
          <mxGeometry x="50" y="465" width="80" height="25" as="geometry" />
        </mxCell>
        <mxCell id="f5SEs0QCKPR_3SpagH0d-115" value="东莞边缘节点" style="text;html=1;strokeColor=none;fillColor=none;align=center;verticalAlign=middle;whiteSpace=wrap;rounded=0;" vertex="1" parent="1">
          <mxGeometry x="530" y="465" width="80" height="25" as="geometry" />
        </mxCell>
        <mxCell id="f5SEs0QCKPR_3SpagH0d-116" value="深圳边缘节点" style="text;html=1;strokeColor=none;fillColor=none;align=center;verticalAlign=middle;whiteSpace=wrap;rounded=0;" vertex="1" parent="1">
          <mxGeometry x="1010" y="465" width="80" height="25" as="geometry" />
        </mxCell>
        <mxCell id="f5SEs0QCKPR_3SpagH0d-117" value="广州用户" style="text;html=1;strokeColor=none;fillColor=none;align=center;verticalAlign=middle;whiteSpace=wrap;rounded=0;" vertex="1" parent="1">
          <mxGeometry x="-11" y="230" width="60" height="30" as="geometry" />
        </mxCell>
        <mxCell id="f5SEs0QCKPR_3SpagH0d-118" value="Actor" style="shape=umlActor;verticalLabelPosition=bottom;verticalAlign=top;html=1;outlineConnect=0;" vertex="1" parent="1">
          <mxGeometry x="59" y="250" width="30" height="60" as="geometry" />
        </mxCell>
        <mxCell id="f5SEs0QCKPR_3SpagH0d-119" value="深圳用户" style="text;html=1;strokeColor=none;fillColor=none;align=center;verticalAlign=middle;whiteSpace=wrap;rounded=0;" vertex="1" parent="1">
          <mxGeometry x="49" y="230" width="60" height="30" as="geometry" />
        </mxCell>
        <mxCell id="f5SEs0QCKPR_3SpagH0d-125" value="" style="edgeStyle=orthogonalEdgeStyle;rounded=0;orthogonalLoop=1;jettySize=auto;html=1;" edge="1" parent="1" source="f5SEs0QCKPR_3SpagH0d-120" target="f5SEs0QCKPR_3SpagH0d-108">
          <mxGeometry relative="1" as="geometry" />
        </mxCell>
        <mxCell id="f5SEs0QCKPR_3SpagH0d-120" value="Actor" style="shape=umlActor;verticalLabelPosition=bottom;verticalAlign=top;html=1;outlineConnect=0;" vertex="1" parent="1">
          <mxGeometry x="119" y="250" width="30" height="60" as="geometry" />
        </mxCell>
        <mxCell id="f5SEs0QCKPR_3SpagH0d-121" value="东莞用户" style="text;html=1;strokeColor=none;fillColor=none;align=center;verticalAlign=middle;whiteSpace=wrap;rounded=0;" vertex="1" parent="1">
          <mxGeometry x="109" y="230" width="60" height="30" as="geometry" />
        </mxCell>
        <mxCell id="f5SEs0QCKPR_3SpagH0d-134" value="prometheus&lt;br&gt;grafana&lt;br&gt;jeager" style="whiteSpace=wrap;html=1;aspect=fixed;" vertex="1" parent="1">
          <mxGeometry x="-280" y="245" width="150" height="150" as="geometry" />
        </mxCell>
        <mxCell id="f5SEs0QCKPR_3SpagH0d-135" value="监控系统" style="text;html=1;strokeColor=none;fillColor=none;align=center;verticalAlign=middle;whiteSpace=wrap;rounded=0;" vertex="1" parent="1">
          <mxGeometry x="-270" y="250" width="60" height="30" as="geometry" />
        </mxCell>
        <mxCell id="f5SEs0QCKPR_3SpagH0d-140" value="CDN" style="text;html=1;strokeColor=none;fillColor=none;align=center;verticalAlign=middle;whiteSpace=wrap;rounded=0;" vertex="1" parent="1">
          <mxGeometry x="-16" y="-60" width="60" height="30" as="geometry" />
        </mxCell>
        <mxCell id="f5SEs0QCKPR_3SpagH0d-141" value="IAM：统一管理平台，配置管理、权限管理，业务管理、设备管理。&lt;br&gt;&lt;br&gt;中心节点：内容完整的地方，供边缘节点回源&lt;br&gt;，如果有源站，中心节点还可以去源站回源。&lt;br&gt;&lt;br&gt;边缘节点：为用户提供服务。内容不存在去源站回源。同一内容只有一份回源流量。&lt;br&gt;&lt;br&gt;GSLB：全局同一调度节点，实现用户就近访问。" style="text;html=1;strokeColor=none;fillColor=none;align=left;verticalAlign=middle;whiteSpace=wrap;rounded=0;" vertex="1" parent="1">
          <mxGeometry x="10" width="250" height="200" as="geometry" />
        </mxCell>
      </root>
    </mxGraphModel>
  </diagram>
</mxfile>
